<svg width="497" height="513" viewBox="0 0 497 513" fill="none" xmlns="http://www.w3.org/2000/svg">
<path d="M161.506 386.676L42.6689 265.055L165.197 143.747L200.569 66.7307L0 265.055L148.183 420.976L161.506 386.676Z" fill="url(#paint0_linear_311_128)"/>
<path d="M313.016 364.615L354.564 463.778L249.404 339.944L305.012 262.993L248.532 153.938L191.987 262.993L247.596 339.944L142.435 463.778L183.979 364.615L121.138 281.353L249.404 0L375.856 281.353L313.016 364.615Z" fill="url(#paint1_linear_311_128)"/>
<path d="M335.489 386.676L454.331 265.055L331.803 143.747L296.431 66.7307L497 265.055L348.817 420.976L335.489 386.676Z" fill="url(#paint2_linear_311_128)"/>
<path d="M320.462 447.614L248.497 513L247.596 510.763V512.178L248.497 513L176.538 447.614L177.753 446.18L199.229 420.976L247.596 465.71L248.497 466.547L297.771 420.976L320.462 447.614Z" fill="url(#paint3_linear_311_128)"/>
<defs>
<linearGradient id="paint0_linear_311_128" x1="-148.106" y1="806.985" x2="231.669" y2="797.555" gradientUnits="userSpaceOnUse">
<stop offset="0.115" stop-color="#861E85"/>
<stop offset="0.52" stop-color="#F55AA3"/>
<stop offset="0.717222" stop-color="#8C9784"/>
<stop offset="0.912174" stop-color="#25D366"/>
<stop offset="1" stop-color="#25D366"/>
</linearGradient>
<linearGradient id="paint1_linear_311_128" x1="-66.9537" y1="969.142" x2="415.371" y2="957.523" gradientUnits="userSpaceOnUse">
<stop offset="0.115" stop-color="#861E85"/>
<stop offset="0.52" stop-color="#F55AA3"/>
<stop offset="0.717222" stop-color="#8C9784"/>
<stop offset="0.912174" stop-color="#25D366"/>
<stop offset="1" stop-color="#25D366"/>
</linearGradient>
<linearGradient id="paint2_linear_311_128" x1="148.324" y1="806.985" x2="528.1" y2="797.555" gradientUnits="userSpaceOnUse">
<stop offset="0.115" stop-color="#861E85"/>
<stop offset="0.52" stop-color="#F55AA3"/>
<stop offset="0.717222" stop-color="#8C9784"/>
<stop offset="0.912174" stop-color="#25D366"/>
<stop offset="1" stop-color="#25D366"/>
</linearGradient>
<linearGradient id="paint3_linear_311_128" x1="70.2592" y1="613.276" x2="341.67" y2="594.658" gradientUnits="userSpaceOnUse">
<stop offset="0.115" stop-color="#861E85"/>
<stop offset="0.52" stop-color="#F55AA3"/>
<stop offset="0.717222" stop-color="#8C9784"/>
<stop offset="0.912174" stop-color="#25D366"/>
<stop offset="1" stop-color="#25D366"/>
</linearGradient>
</defs>
</svg>
